M48
;Layer_Color=6321
;FILE_FORMAT=2:4
INCH,TZ
;TYPE=PLATED
T1F00S00C0.0276
T2F00S00C0.0315
T3F00S00C0.0335
T4F00S00C0.0354
T5F00S00C0.0394
T6F00S00C0.0472
T7F00S00C0.0512
T8F00S00C0.0709
T9F00S00C0.0787
T10F00S00C0.1260
;TYPE=NON_PLATED
T11F00S00C0.1575
%
T01
X-16929Y12780
Y14780
X-15961Y17323
X-13961
X-10236Y16717
Y18717
X-5512Y17339
Y15339
Y12024
Y10024
X-5709Y21441
Y23441
X-6512Y31102
X-4512
T02
X-8465Y5906
X-6496Y5906
X-8465Y22441
X-10433Y22441
X-6496Y27165
X-4528Y27165
T03
X-12008Y15429
Y18429
X-7087Y17445
Y14445
X-6890Y20547
Y23547
X-7406Y29134
X-4406
T04
X-48819Y5512
X-44094
X-38976
Y9055
X-44094
X-48819
T05
X-1142Y9433
Y10433
Y11433
X-8465Y15945
Y20276
X-19079Y14567
X-20079
X-21079
X-14780Y21654
X-13780
X-12780
T06
X-15839Y19291
X-11720
X-3937Y11902
Y7783
X-22744Y12598
X-26862
T07
X-28346Y3693
Y5693
Y7693
Y9693
X-27559Y15110
Y17110
Y19110
Y21110
X-2362Y31587
Y33587
Y35587
Y37587
T08
X-12598Y9774
Y12274
X-21654Y18504
Y21004
X-32146Y21063
Y18307
X-48957Y18346
Y23819
Y26575
Y32047
X-32146Y32087
Y29331
Y26575
Y23819
T09
X-48819Y3150
X-38976
X-13780Y2756
X-12205
X-10630
X-9055
X-7480
X-5906
X-1969Y15748
Y17323
Y18898
Y20472
X-19260Y7087
X-23260
X-24016Y26740
Y30740
X-13386
Y26740
X-1969Y23622
Y22047
X-2756Y40157
X-4331
X-5906
X-7480
X-13386Y41370
Y37370
X-24016
Y41370
X-35433Y40945
X-38583
X-42126
X-45669
X-49213
T10
X-53346Y1772
X-1772
X-53346Y22244
X-1772Y43307
X-37992
X-53346
T11
X-31811Y14272
X-49291
Y36122
X-31811
M30
