G04*
G04 #@! TF.GenerationSoftware,Altium Limited,CircuitStudio,1.5.2 (30)*
G04*
G04 Layer_Physical_Order=1*
G04 Layer_Color=11767835*
%FSLAX25Y25*%
%MOIN*%
G70*
G01*
G75*
%ADD10C,0.07874*%
%ADD11C,0.11811*%
%ADD12R,0.06299X0.06299*%
%ADD13C,0.06299*%
%ADD14C,0.05315*%
%ADD15R,0.05315X0.05315*%
%ADD16C,0.04724*%
%ADD17R,0.06299X0.06299*%
%ADD18C,0.12598*%
%ADD19R,0.05906X0.05906*%
G04:AMPARAMS|DCode=20|XSize=110.24mil|YSize=110.24mil|CornerRadius=27.56mil|HoleSize=0mil|Usage=FLASHONLY|Rotation=0.000|XOffset=0mil|YOffset=0mil|HoleType=Round|Shape=RoundedRectangle|*
%AMROUNDEDRECTD20*
21,1,0.11024,0.05512,0,0,0.0*
21,1,0.05512,0.11024,0,0,0.0*
1,1,0.05512,0.02756,-0.02756*
1,1,0.05512,-0.02756,-0.02756*
1,1,0.05512,-0.02756,0.02756*
1,1,0.05512,0.02756,0.02756*
%
%ADD20ROUNDEDRECTD20*%
%ADD21C,0.05512*%
%ADD22O,0.11811X0.09843*%
%ADD23R,0.07874X0.07874*%
%ADD24C,0.07874*%
%ADD25R,0.11811X0.10236*%
%ADD26O,0.11811X0.10236*%
%ADD27R,0.10236X0.11811*%
%ADD28O,0.10236X0.11811*%
%ADD29R,0.07874X0.07874*%
%ADD30C,0.15748*%
%ADD31R,0.13780X0.13780*%
%ADD32C,0.05906*%
G04:AMPARAMS|DCode=33|XSize=157.48mil|YSize=157.48mil|CornerRadius=39.37mil|HoleSize=0mil|Usage=FLASHONLY|Rotation=0.000|XOffset=0mil|YOffset=0mil|HoleType=Round|Shape=RoundedRectangle|*
%AMROUNDEDRECTD33*
21,1,0.15748,0.07874,0,0,0.0*
21,1,0.07874,0.15748,0,0,0.0*
1,1,0.07874,0.03937,-0.03937*
1,1,0.07874,-0.03937,-0.03937*
1,1,0.07874,-0.03937,0.03937*
1,1,0.07874,0.03937,0.03937*
%
%ADD33ROUNDEDRECTD33*%
G04:AMPARAMS|DCode=34|XSize=157.48mil|YSize=157.48mil|CornerRadius=39.37mil|HoleSize=0mil|Usage=FLASHONLY|Rotation=90.000|XOffset=0mil|YOffset=0mil|HoleType=Round|Shape=RoundedRectangle|*
%AMROUNDEDRECTD34*
21,1,0.15748,0.07874,0,0,90.0*
21,1,0.07874,0.15748,0,0,90.0*
1,1,0.07874,0.03937,0.03937*
1,1,0.07874,0.03937,-0.03937*
1,1,0.07874,-0.03937,-0.03937*
1,1,0.07874,-0.03937,0.03937*
%
%ADD34ROUNDEDRECTD34*%
G04:AMPARAMS|DCode=35|XSize=118.11mil|YSize=118.11mil|CornerRadius=29.53mil|HoleSize=0mil|Usage=FLASHONLY|Rotation=180.000|XOffset=0mil|YOffset=0mil|HoleType=Round|Shape=RoundedRectangle|*
%AMROUNDEDRECTD35*
21,1,0.11811,0.05906,0,0,180.0*
21,1,0.05906,0.11811,0,0,180.0*
1,1,0.05906,-0.02953,0.02953*
1,1,0.05906,0.02953,0.02953*
1,1,0.05906,0.02953,-0.02953*
1,1,0.05906,-0.02953,-0.02953*
%
%ADD35ROUNDEDRECTD35*%
%ADD36C,0.11811*%
D10*
X-440945Y55118D02*
X-433071D01*
X-397638Y90551D02*
X-389764D01*
X-433071Y55118D02*
X-397638Y90551D01*
X-489567Y320472D02*
X-485827D01*
X-488189Y55118D02*
X-488189Y55118D01*
X-321457Y320866D02*
X-319488Y318898D01*
X-303150D01*
X-321457Y265748D02*
X-305118D01*
X-291339Y251969D01*
Y192913D02*
Y251969D01*
Y192913D02*
X-289528Y191102D01*
X-275590D01*
X-261968Y171102D02*
X-255906Y177165D01*
X-275590Y171102D02*
X-261968D01*
X-169291Y216535D02*
X-147795D01*
X-200787Y185039D02*
X-169291Y216535D01*
X-216535Y185039D02*
X-200787D01*
X-212598Y114173D02*
X-204724Y106299D01*
X-212598Y143858D02*
X-210787Y145669D01*
X-232598Y70866D02*
Y82362D01*
X-268622Y125984D02*
Y134764D01*
X-275590Y141732D02*
X-268622Y134764D01*
X-275590Y141732D02*
Y151102D01*
X-227441Y125984D02*
X-212598D01*
Y114173D02*
Y125984D01*
Y143858D01*
X-440945Y90551D02*
Y350394D01*
X-421260Y370079D01*
Y409449D01*
X-389764Y55118D02*
X-385827D01*
X-374016Y66929D01*
Y122047D01*
X-389764Y137795D02*
X-374016Y122047D01*
X-389764Y137795D02*
Y350394D01*
X-354331Y385827D01*
Y409449D01*
X-303150Y318898D02*
X-271654Y287402D01*
Y259842D02*
Y287402D01*
Y259842D02*
X-255906Y244094D01*
Y177165D02*
Y244094D01*
X-328740Y183071D02*
X-321457D01*
X-342520Y169291D02*
X-328740Y183071D01*
X-342520Y106299D02*
Y169291D01*
Y106299D02*
X-313150Y76929D01*
X-283465D01*
X-515748Y346654D02*
Y385827D01*
X-492126Y409449D01*
X-515748Y346654D02*
X-489567Y320472D01*
X-488189Y55118D02*
X-464567D01*
Y299213D01*
X-485827Y320472D02*
X-464567Y299213D01*
X-29528Y173228D02*
X-19685D01*
X-39370Y153543D02*
Y163386D01*
X-29528Y173228D01*
X-55118Y137795D02*
X-39370Y153543D01*
X-204724Y106299D02*
X-173228D01*
X-139764Y139764D01*
X-96457D01*
X-90551Y133858D01*
X-59055D01*
X-55118Y137795D01*
X-232598Y82362D02*
X-226378Y88583D01*
X-141732D01*
X-90551Y37402D01*
Y27559D02*
Y37402D01*
D11*
X-240158Y373701D02*
X-133858D01*
Y267402D02*
X-98110D01*
X-40118Y220472D02*
X-19685D01*
X-55866Y236221D02*
X-40118Y220472D01*
X-98110Y267402D02*
X-66929Y236221D01*
X-45394Y375866D02*
X-23622D01*
X-133858Y373701D02*
X-47559D01*
X-43307Y259842D02*
X-19685Y236221D01*
X-43307Y259842D02*
Y373780D01*
X-45394Y375866D02*
X-43307Y373780D01*
X-84646Y224409D02*
X-79961D01*
X-68898Y235472D01*
X-66929Y236221D02*
X-55866D01*
D12*
X-11417Y114331D02*
D03*
D13*
Y104331D02*
D03*
Y94331D02*
D03*
X-137795Y216535D02*
D03*
X-127795D02*
D03*
X-200787Y145669D02*
D03*
X-210787D02*
D03*
D14*
X-84646Y59055D02*
D03*
X-104331Y224410D02*
D03*
X-45276Y271654D02*
D03*
D15*
X-64961Y59055D02*
D03*
X-84646Y224409D02*
D03*
X-64961Y271654D02*
D03*
D16*
X-102362Y187165D02*
D03*
Y167165D02*
D03*
X-55118Y153386D02*
D03*
Y173386D02*
D03*
X-57087Y214409D02*
D03*
Y234409D02*
D03*
X-139606Y173228D02*
D03*
X-159606D02*
D03*
X-55118Y100236D02*
D03*
Y120236D02*
D03*
X-45118Y311024D02*
D03*
X-65118D02*
D03*
X-169291Y127795D02*
D03*
Y147795D02*
D03*
D17*
X-147795Y216535D02*
D03*
X-190787Y145669D02*
D03*
D18*
X-533465Y433071D02*
D03*
X-379921D02*
D03*
X-17717D02*
D03*
Y17717D02*
D03*
X-533465D02*
D03*
Y222441D02*
D03*
D19*
X-488189Y90551D02*
D03*
Y55118D02*
D03*
X-440945Y90551D02*
D03*
Y55118D02*
D03*
X-389764Y90551D02*
D03*
Y55118D02*
D03*
D20*
X-27559Y401575D02*
D03*
X-43307D02*
D03*
X-59055D02*
D03*
X-74803D02*
D03*
X-488189Y31496D02*
D03*
X-389764D02*
D03*
X-385827Y409449D02*
D03*
X-354331D02*
D03*
X-456693D02*
D03*
X-421260D02*
D03*
X-492126D02*
D03*
D21*
X-68898Y235472D02*
D03*
Y205472D02*
D03*
X-74055Y291339D02*
D03*
X-44055D02*
D03*
X-70866Y144449D02*
D03*
Y174449D02*
D03*
X-120079Y184291D02*
D03*
Y154291D02*
D03*
D22*
X-283465Y96929D02*
D03*
Y36929D02*
D03*
Y56929D02*
D03*
Y76929D02*
D03*
X-275590Y211102D02*
D03*
Y151102D02*
D03*
Y171102D02*
D03*
Y191102D02*
D03*
X-23622Y315866D02*
D03*
Y375866D02*
D03*
Y355866D02*
D03*
Y335866D02*
D03*
D23*
X-158386Y192913D02*
D03*
X-227441Y125984D02*
D03*
D24*
X-117205Y192913D02*
D03*
X-39370Y77835D02*
D03*
X-268622Y125984D02*
D03*
D25*
X-19685Y157480D02*
D03*
D26*
Y173228D02*
D03*
Y188976D02*
D03*
Y204724D02*
D03*
Y220472D02*
D03*
Y236221D02*
D03*
D27*
X-59055Y27559D02*
D03*
D28*
X-74803D02*
D03*
X-90551D02*
D03*
X-106299D02*
D03*
X-122047D02*
D03*
X-137795D02*
D03*
D29*
X-39370Y119016D02*
D03*
D30*
X-492913Y142717D02*
D03*
X-318110D02*
D03*
X-492913Y361221D02*
D03*
X-318110D02*
D03*
X-133858Y373701D02*
D03*
X-240158D02*
D03*
Y307402D02*
D03*
X-133858D02*
D03*
X-192598Y70866D02*
D03*
D31*
X-489567Y320472D02*
D03*
Y265748D02*
D03*
Y238189D02*
D03*
Y183465D02*
D03*
X-321457Y320866D02*
D03*
Y293307D02*
D03*
Y265748D02*
D03*
Y238189D02*
D03*
Y210630D02*
D03*
Y183071D02*
D03*
D32*
X-84646Y159449D02*
D03*
Y202756D02*
D03*
D33*
X-133858Y413701D02*
D03*
X-240158D02*
D03*
Y267402D02*
D03*
X-133858D02*
D03*
D34*
X-232598Y70866D02*
D03*
D35*
X-216535Y185039D02*
D03*
X-125984Y122736D02*
D03*
D36*
X-216535Y210039D02*
D03*
X-125984Y97736D02*
D03*
M02*
