G04*
G04 #@! TF.GenerationSoftware,Altium Limited,CircuitStudio,1.5.2 (30)*
G04*
G04 Layer_Physical_Order=2*
G04 Layer_Color=10066431*
%FSLAX25Y25*%
%MOIN*%
G70*
G01*
G75*
%ADD10C,0.07874*%
%ADD11C,0.11811*%
%ADD12R,0.06299X0.06299*%
%ADD13C,0.06299*%
%ADD14C,0.05315*%
%ADD15R,0.05315X0.05315*%
%ADD16C,0.04724*%
%ADD17R,0.06299X0.06299*%
%ADD18C,0.12598*%
%ADD19R,0.05906X0.05906*%
G04:AMPARAMS|DCode=20|XSize=110.24mil|YSize=110.24mil|CornerRadius=27.56mil|HoleSize=0mil|Usage=FLASHONLY|Rotation=0.000|XOffset=0mil|YOffset=0mil|HoleType=Round|Shape=RoundedRectangle|*
%AMROUNDEDRECTD20*
21,1,0.11024,0.05512,0,0,0.0*
21,1,0.05512,0.11024,0,0,0.0*
1,1,0.05512,0.02756,-0.02756*
1,1,0.05512,-0.02756,-0.02756*
1,1,0.05512,-0.02756,0.02756*
1,1,0.05512,0.02756,0.02756*
%
%ADD20ROUNDEDRECTD20*%
%ADD21C,0.05512*%
%ADD22O,0.11811X0.09843*%
%ADD23R,0.07874X0.07874*%
%ADD24C,0.07874*%
%ADD25R,0.11811X0.10236*%
%ADD26O,0.11811X0.10236*%
%ADD27R,0.10236X0.11811*%
%ADD28O,0.10236X0.11811*%
%ADD29R,0.07874X0.07874*%
%ADD30C,0.15748*%
%ADD31R,0.13780X0.13780*%
%ADD32C,0.05906*%
G04:AMPARAMS|DCode=33|XSize=157.48mil|YSize=157.48mil|CornerRadius=39.37mil|HoleSize=0mil|Usage=FLASHONLY|Rotation=0.000|XOffset=0mil|YOffset=0mil|HoleType=Round|Shape=RoundedRectangle|*
%AMROUNDEDRECTD33*
21,1,0.15748,0.07874,0,0,0.0*
21,1,0.07874,0.15748,0,0,0.0*
1,1,0.07874,0.03937,-0.03937*
1,1,0.07874,-0.03937,-0.03937*
1,1,0.07874,-0.03937,0.03937*
1,1,0.07874,0.03937,0.03937*
%
%ADD33ROUNDEDRECTD33*%
G04:AMPARAMS|DCode=34|XSize=157.48mil|YSize=157.48mil|CornerRadius=39.37mil|HoleSize=0mil|Usage=FLASHONLY|Rotation=90.000|XOffset=0mil|YOffset=0mil|HoleType=Round|Shape=RoundedRectangle|*
%AMROUNDEDRECTD34*
21,1,0.15748,0.07874,0,0,90.0*
21,1,0.07874,0.15748,0,0,90.0*
1,1,0.07874,0.03937,0.03937*
1,1,0.07874,0.03937,-0.03937*
1,1,0.07874,-0.03937,-0.03937*
1,1,0.07874,-0.03937,0.03937*
%
%ADD34ROUNDEDRECTD34*%
G04:AMPARAMS|DCode=35|XSize=118.11mil|YSize=118.11mil|CornerRadius=29.53mil|HoleSize=0mil|Usage=FLASHONLY|Rotation=180.000|XOffset=0mil|YOffset=0mil|HoleType=Round|Shape=RoundedRectangle|*
%AMROUNDEDRECTD35*
21,1,0.11811,0.05906,0,0,180.0*
21,1,0.05906,0.11811,0,0,180.0*
1,1,0.05906,-0.02953,0.02953*
1,1,0.05906,0.02953,0.02953*
1,1,0.05906,0.02953,-0.02953*
1,1,0.05906,-0.02953,-0.02953*
%
%ADD35ROUNDEDRECTD35*%
%ADD36C,0.11811*%
%ADD37C,0.05906*%
%ADD38C,0.09843*%
D10*
X-389764Y31496D02*
Y55118D01*
X-488189Y31496D02*
Y55118D01*
X-409449Y74803D02*
X-389764Y55118D01*
X-503937Y74803D02*
X-409449D01*
X-452756Y90551D02*
Y216535D01*
X-474409Y238189D02*
X-452756Y216535D01*
X-489567Y238189D02*
X-474409D01*
X-488189Y90551D02*
X-452756D01*
X-440945D01*
X-421260Y122047D02*
X-389764Y90551D01*
X-421260Y122047D02*
Y248031D01*
X-438976Y265748D02*
X-421260Y248031D01*
X-321457Y293307D02*
X-312303D01*
X-342520Y204724D02*
X-336614Y210630D01*
X-321457D01*
X-342520Y86614D02*
Y204724D01*
Y86614D02*
X-312835Y56929D01*
X-283465D01*
Y96929D02*
X-246535D01*
X-232598Y82992D01*
X-283465Y36929D02*
X-207165D01*
X-192598Y51496D01*
Y70866D01*
X-23189Y355866D02*
X-9843D01*
X-23622Y153543D02*
X-19685Y157480D01*
X-59055Y401575D02*
X-51181D01*
X-43307D01*
X-229035Y210039D02*
X-216535D01*
X-312303Y293307D02*
X-229035Y210039D01*
X-216535D02*
X-160039Y153543D01*
X-137795D02*
Y216535D01*
X-160039Y153543D02*
X-137795D01*
X-118110Y193819D02*
Y206850D01*
X-127795Y216535D02*
X-118110Y206850D01*
Y193819D02*
X-117205Y192913D01*
X-158386Y205945D02*
X-147795Y216535D01*
X-158386Y192913D02*
Y205945D01*
Y174449D02*
Y192913D01*
X-159606Y173228D02*
X-158386Y174449D01*
X-102362Y153543D02*
Y167165D01*
X-275590Y151102D02*
X-266220D01*
X-259842Y157480D01*
X-208661D01*
X-200787Y149606D01*
Y131732D02*
Y149606D01*
Y131732D02*
X-195039Y125984D01*
X-153543D01*
X-125984Y98425D01*
X-190787Y145669D02*
X-169291D01*
X-161417Y153543D01*
Y154921D01*
X-160039Y153543D01*
X-125984Y122736D02*
Y153543D01*
X-137795D02*
X-125984D01*
X-102362D01*
X-55118Y120236D02*
X-40591D01*
X-34685Y114331D02*
X-11417D01*
X-40591Y120236D02*
X-39370Y119016D01*
X-34685Y114331D01*
X-55118Y100236D02*
X-29685D01*
X-25591Y104331D01*
X-11417D01*
X-39370Y77835D02*
X-16654D01*
X-11417Y83071D01*
Y94331D01*
X-43307Y59055D02*
X-39370Y62992D01*
Y77835D01*
X-59055Y27559D02*
Y59055D01*
X-64961D02*
X-59055D01*
X-43307D01*
X-122047Y27559D02*
X-106299D01*
X-109921Y82992D02*
X-72677Y120236D01*
X-55118D01*
X-207165Y36929D02*
X-158976D01*
X-149606Y27559D01*
X-137795D01*
X-122047D01*
X-94488Y68898D02*
X-84646Y59055D01*
X-94488Y68898D02*
Y70866D01*
X-74803Y354331D02*
Y401575D01*
Y354331D02*
X-56339Y335866D01*
X-23622D01*
X-456693Y265748D02*
Y409449D01*
X-489567Y265748D02*
X-456693D01*
X-438976D01*
X-515748Y86614D02*
X-503937Y74803D01*
X-515748Y86614D02*
Y157283D01*
X-489567Y183465D01*
X-84646Y153543D02*
Y159449D01*
X-102362Y153543D02*
X-84646D01*
X-70866Y144449D02*
Y153543D01*
X-84646D02*
X-70866D01*
X-23622D01*
X-117205Y187165D02*
Y192913D01*
X-120079Y184291D02*
X-117205Y187165D01*
X-113268Y188976D02*
X-19685D01*
X-9843Y355866D02*
Y391732D01*
X-19685Y401575D02*
X-9843Y391732D01*
X-27559Y401575D02*
X-19685D01*
X-136142Y82992D02*
X-109921D01*
X-141732Y88583D02*
X-136142Y82992D01*
X-227008Y88583D02*
X-141732D01*
X-232598Y82992D02*
X-227008Y88583D01*
X-232598Y70866D02*
Y82992D01*
D11*
X-240158Y267402D02*
X-133858D01*
X-240158Y307402D02*
X-133858D01*
X-240158Y413701D02*
X-133858D01*
X-125669D01*
X-114173Y425197D01*
X-55118D01*
X-51181Y421260D01*
Y401575D02*
Y421260D01*
X-114173Y291339D02*
Y425197D01*
Y291339D02*
X-74055D01*
X-23622Y266968D02*
Y315866D01*
X-55118Y235472D02*
X-23622Y266968D01*
X-114173Y291339D02*
X-94488Y311024D01*
X-65118D01*
X-98110Y271654D02*
X-64961D01*
X-133858Y307402D02*
X-110236Y283780D01*
X-98110Y271654D01*
X-110236Y226378D02*
Y283780D01*
Y226378D02*
X-88583Y204724D01*
X-19685D01*
D12*
X-11417Y114331D02*
D03*
D13*
Y104331D02*
D03*
Y94331D02*
D03*
X-137795Y216535D02*
D03*
X-127795D02*
D03*
X-200787Y145669D02*
D03*
X-210787D02*
D03*
D14*
X-84646Y59055D02*
D03*
X-104331Y224410D02*
D03*
X-45276Y271654D02*
D03*
D15*
X-64961Y59055D02*
D03*
X-84646Y224409D02*
D03*
X-64961Y271654D02*
D03*
D16*
X-102362Y187165D02*
D03*
Y167165D02*
D03*
X-55118Y153386D02*
D03*
Y173386D02*
D03*
X-57087Y214409D02*
D03*
Y234409D02*
D03*
X-139606Y173228D02*
D03*
X-159606D02*
D03*
X-55118Y100236D02*
D03*
Y120236D02*
D03*
X-45118Y311024D02*
D03*
X-65118D02*
D03*
X-169291Y127795D02*
D03*
Y147795D02*
D03*
D17*
X-147795Y216535D02*
D03*
X-190787Y145669D02*
D03*
D18*
X-533465Y433071D02*
D03*
X-379921D02*
D03*
X-17717D02*
D03*
Y17717D02*
D03*
X-533465D02*
D03*
Y222441D02*
D03*
D19*
X-488189Y90551D02*
D03*
Y55118D02*
D03*
X-440945Y90551D02*
D03*
Y55118D02*
D03*
X-389764Y90551D02*
D03*
Y55118D02*
D03*
D20*
X-27559Y401575D02*
D03*
X-43307D02*
D03*
X-59055D02*
D03*
X-74803D02*
D03*
X-488189Y31496D02*
D03*
X-389764D02*
D03*
X-385827Y409449D02*
D03*
X-354331D02*
D03*
X-456693D02*
D03*
X-421260D02*
D03*
X-492126D02*
D03*
D21*
X-68898Y235472D02*
D03*
Y205472D02*
D03*
X-74055Y291339D02*
D03*
X-44055D02*
D03*
X-70866Y144449D02*
D03*
Y174449D02*
D03*
X-120079Y184291D02*
D03*
Y154291D02*
D03*
D22*
X-283465Y96929D02*
D03*
Y36929D02*
D03*
Y56929D02*
D03*
Y76929D02*
D03*
X-275590Y211102D02*
D03*
Y151102D02*
D03*
Y171102D02*
D03*
Y191102D02*
D03*
X-23622Y315866D02*
D03*
Y375866D02*
D03*
Y355866D02*
D03*
Y335866D02*
D03*
D23*
X-158386Y192913D02*
D03*
X-227441Y125984D02*
D03*
D24*
X-117205Y192913D02*
D03*
X-39370Y77835D02*
D03*
X-268622Y125984D02*
D03*
D25*
X-19685Y157480D02*
D03*
D26*
Y173228D02*
D03*
Y188976D02*
D03*
Y204724D02*
D03*
Y220472D02*
D03*
Y236221D02*
D03*
D27*
X-59055Y27559D02*
D03*
D28*
X-74803D02*
D03*
X-90551D02*
D03*
X-106299D02*
D03*
X-122047D02*
D03*
X-137795D02*
D03*
D29*
X-39370Y119016D02*
D03*
D30*
X-492913Y142717D02*
D03*
X-318110D02*
D03*
X-492913Y361221D02*
D03*
X-318110D02*
D03*
X-133858Y373701D02*
D03*
X-240158D02*
D03*
Y307402D02*
D03*
X-133858D02*
D03*
X-192598Y70866D02*
D03*
D31*
X-489567Y320472D02*
D03*
Y265748D02*
D03*
Y238189D02*
D03*
Y183465D02*
D03*
X-321457Y320866D02*
D03*
Y293307D02*
D03*
Y265748D02*
D03*
Y238189D02*
D03*
Y210630D02*
D03*
Y183071D02*
D03*
D32*
X-84646Y159449D02*
D03*
Y202756D02*
D03*
D33*
X-133858Y413701D02*
D03*
X-240158D02*
D03*
Y267402D02*
D03*
X-133858D02*
D03*
D34*
X-232598Y70866D02*
D03*
D35*
X-216535Y185039D02*
D03*
X-125984Y122736D02*
D03*
D36*
X-216535Y210039D02*
D03*
X-125984Y97736D02*
D03*
D37*
X-275590Y211102D02*
X-254410D01*
X-228346Y185039D01*
X-216535D01*
X-55118Y173228D02*
X-19685D01*
X-57087Y204724D02*
Y214409D01*
X-56339Y174449D02*
X-55118Y173228D01*
X-70866Y174449D02*
X-56339D01*
D38*
X-122047Y27559D02*
Y43307D01*
X-65118Y100236D02*
X-55118D01*
X-122047Y43307D02*
X-94488Y70866D01*
X-65118Y100236D01*
M02*
